<svg id="Layer_1" data-name="Layer 1" xmlns="http://www.w3.org/2000/svg" xmlns:xlink="http://www.w3.org/1999/xlink" viewBox="0 0 434.47 414.74">
  <defs>
    <linearGradient id="linear-gradient" x1="467.17" y1="357.72" x2="-35.07" y2="-9.3" gradientUnits="userSpaceOnUse">
      <stop offset="0" stop-color="#727377"/>
      <stop offset="0.23" stop-color="#6e6e6e"/>
      <stop offset="0.48" stop-color="#676c6b"/>
      <stop offset="0.81" stop-color="#7a7a7a"/>
      <stop offset="1" stop-color="#676c6b"/>
    </linearGradient>
    <linearGradient id="linear-gradient-2" x1="19.8" y1="282.94" x2="258.63" y2="113.47" gradientUnits="userSpaceOnUse">
      <stop offset="0" stop-color="#5b595a"/>
      <stop offset="0.09" stop-color="#726e6f"/>
      <stop offset="0.22" stop-color="#9a9394"/>
      <stop offset="0.3" stop-color="#a29c9d"/>
      <stop offset="0.42" stop-color="#b8b3b4"/>
      <stop offset="0.57" stop-color="#dcd9da"/>
      <stop offset="0.7" stop-color="#fff"/>
      <stop offset="0.74" stop-color="#f7f7f7"/>
      <stop offset="0.79" stop-color="#e0e0e0"/>
      <stop offset="0.85" stop-color="#bbb"/>
      <stop offset="0.88" stop-color="#ababab"/>
    </linearGradient>
  </defs>
  <path d="M76.53,599.73q-1-11.87-1-24c0-155.54,126.1-281.63,281.64-281.63a281.1,281.1,0,0,1,87.77,13.95" transform="translate(-75.02 -226.34)" style="fill: none;stroke: #231f20;stroke-miterlimit: 10;opacity: 0.2"/>
  <line x1="369.91" y1="373.39" x2="0.5" y2="373.39" style="fill: none;stroke: #231f20;stroke-miterlimit: 10;opacity: 0.2"/>
  <polygon points="394.99 390.34 394.7 390.34 394.65 390.26 394.99 390.34" style="fill: #203d3f"/>
  <polygon points="383.41 319.06 381.38 320.23 281.96 320.23 230.9 231.79 212.1 199.23 263.16 110.78 333.02 231.79 383.41 319.06" style="fill: url(#linear-gradient)"/>
  <polygon points="263.16 110.78 212.1 199.23 193.3 231.79 142.23 320.23 42.82 320.23 40.79 319.06 91.17 231.79 161.03 110.78 212.09 22.34 263.16 110.78" style="fill: url(#linear-gradient-2)"/>
  <polygon points="370.17 257.53 370.17 270.85 370.08 271 347.99 309.26 341.46 320.57 337.52 327.38 329.65 327.38 333.59 320.57 341.01 307.71 366.14 264.19 370.08 257.37 370.17 257.53" style="fill: #231f20"/>
  <polygon points="54.72 257.45 54.72 270.77 54.63 270.92 32.54 309.19 26.02 320.49 22.08 327.31 14.21 327.31 18.15 320.49 25.57 307.63 50.7 264.11 54.63 257.3 54.72 257.45" style="fill: #231f20"/>
  <polygon points="95.05 327.31 87.18 327.31 83.25 320.49 83.3 320.49 83.24 320.48 61.53 282.88 54.72 271.08 54.72 257.45 58.56 264.11 61.53 269.25 91.12 320.49 92.27 322.49 95.05 327.31" style="fill: #231f20"/>
  <polygon points="410.5 327.38 402.63 327.38 398.69 320.57 398.74 320.57 398.68 320.55 376.98 282.96 370.17 271.15 370.17 257.53 374.01 264.19 376.98 269.33 406.56 320.57 407.71 322.56 410.5 327.38" style="fill: #231f20"/>
  <text transform="translate(108.72 327.15)" style="font-size: 91.48499298095703px;fill: #231f20;font-family: AgencyFB-Reg, Agency FB;letter-spacing: 0.2999979735005593em">RTIC</text>
  <text transform="translate(15.21 360.87)" style="font-size: 30px;fill: #231f20;font-family: AgencyFB-Reg, Agency FB;letter-spacing: 0.7em">INTERNATIONAL</text>
  <circle cx="432.91" cy="373.39" r="1.56" style="fill: #231f20;opacity: 0.2"/>
  <path d="M462.11,532.46q1-11.87,1-24c0-155.54-126.1-281.63-281.64-281.63a281.1,281.1,0,0,0-87.77,13.95" transform="translate(-75.02 -226.34)" style="fill: none;stroke: #231f20;stroke-miterlimit: 10;opacity: 0.2"/>
  <line x1="86.32" y1="414.49" x2="313.26" y2="28.18" style="fill: none;stroke: #231f20;stroke-miterlimit: 10;opacity: 0.2"/>
</svg>
