<svg id="Layer_1" data-name="Layer 1" xmlns="http://www.w3.org/2000/svg" xmlns:xlink="http://www.w3.org/1999/xlink" viewBox="0 0 434.47 414.74">
  <defs>
    <style>
      .cls-1 {
        fill: none;
        stroke: #231f20;
        stroke-miterlimit: 10;
      }

      .cls-1, .cls-8 {
        opacity: 0.2;
      }

      .cls-2 {
        fill: #203d3f;
      }

      .cls-3 {
        fill: url(#linear-gradient);
      }

      .cls-4 {
        fill: url(#linear-gradient-2);
      }

      .cls-5, .cls-6, .cls-7, .cls-8 {
        fill: #231f20;
      }

      .cls-6 {
        font-size: 91.48px;
        letter-spacing: 0.3em;
      }

      .cls-6, .cls-7 {
        font-family: AgencyFB-Reg, Agency FB;
      }

      .cls-7 {
        font-size: 30px;
        letter-spacing: 0.7em;
      }
    </style>
    <linearGradient id="linear-gradient" x1="261.58" y1="-97.67" x2="325.68" y2="534.52" gradientUnits="userSpaceOnUse">
      <stop offset="0" stop-color="#ffd956"/>
      <stop offset="0.36" stop-color="#a4752b"/>
      <stop offset="0.7" stop-color="#fadd63"/>
      <stop offset="1" stop-color="#f1c26a"/>
      <stop offset="1" stop-color="#fde785"/>
    </linearGradient>
    <linearGradient id="linear-gradient-2" x1="19.8" y1="282.94" x2="258.63" y2="113.47" gradientUnits="userSpaceOnUse">
      <stop offset="0" stop-color="#758fa0"/>
      <stop offset="0.18" stop-color="#e4eaf1"/>
      <stop offset="0.45" stop-color="#91a4b4"/>
      <stop offset="0.7" stop-color="#f7f6f8"/>
      <stop offset="0.95" stop-color="#6d8aa3"/>
    </linearGradient>
  </defs>
  <path class="cls-1" d="M76.53,599.73q-1-11.87-1-24c0-155.54,126.1-281.63,281.64-281.63a281.1,281.1,0,0,1,87.77,13.95" transform="translate(-75.02 -226.34)"/>
  <line class="cls-1" x1="369.91" y1="373.39" x2="0.5" y2="373.39"/>
  <polygon class="cls-2" points="394.99 390.34 394.7 390.34 394.65 390.26 394.99 390.34"/>
  <polygon class="cls-3" points="383.41 319.06 381.38 320.23 281.96 320.23 230.9 231.79 212.1 199.23 263.16 110.78 333.02 231.79 383.41 319.06"/>
  <polygon class="cls-4" points="263.16 110.78 212.1 199.23 193.3 231.79 142.23 320.23 42.82 320.23 40.79 319.06 91.17 231.79 161.03 110.78 212.09 22.34 263.16 110.78"/>
  <polygon class="cls-5" points="370.17 257.53 370.17 270.85 370.08 271 347.99 309.26 341.46 320.57 337.52 327.38 329.65 327.38 333.59 320.57 341.01 307.71 366.14 264.19 370.08 257.37 370.17 257.53"/>
  <polygon class="cls-5" points="54.72 257.45 54.72 270.77 54.63 270.92 32.54 309.19 26.02 320.49 22.08 327.31 14.21 327.31 18.15 320.49 25.57 307.63 50.7 264.11 54.63 257.3 54.72 257.45"/>
  <polygon class="cls-5" points="95.05 327.31 87.18 327.31 83.25 320.49 83.3 320.49 83.24 320.48 61.53 282.88 54.72 271.08 54.72 257.45 58.56 264.11 61.53 269.25 91.12 320.49 92.27 322.49 95.05 327.31"/>
  <polygon class="cls-5" points="410.5 327.38 402.63 327.38 398.69 320.57 398.74 320.57 398.68 320.55 376.98 282.96 370.17 271.15 370.17 257.53 374.01 264.19 376.98 269.33 406.56 320.57 407.71 322.56 410.5 327.38"/>
  <text class="cls-6" transform="translate(108.72 327.15)">RTIC</text>
  <text class="cls-7" transform="translate(15.21 360.87)">INTERNATIONAL</text>
  <circle class="cls-8" cx="432.91" cy="373.39" r="1.56"/>
  <path class="cls-1" d="M462.11,532.46q1-11.87,1-24c0-155.54-126.1-281.63-281.64-281.63a281.1,281.1,0,0,0-87.77,13.95" transform="translate(-75.02 -226.34)"/>
  <line class="cls-1" x1="86.32" y1="414.49" x2="313.26" y2="28.18"/>
</svg>
